<?xml version="1.0" encoding="UTF-8" standalone="no"?>
<!-- Created with Inkscape (http://www.inkscape.org/) -->

<svg
   xmlns:dc="http://purl.org/dc/elements/1.1/"
   xmlns:cc="http://creativecommons.org/ns#"
   xmlns:rdf="http://www.w3.org/1999/02/22-rdf-syntax-ns#"
   xmlns:svg="http://www.w3.org/2000/svg"
   xmlns="http://www.w3.org/2000/svg"
   xmlns:sodipodi="http://sodipodi.sourceforge.net/DTD/sodipodi-0.dtd"
   xmlns:inkscape="http://www.inkscape.org/namespaces/inkscape"
   width="2.9665482mm"
   height="2.9625678mm"
   viewBox="0 0 2.9665482 2.9625678"
   version="1.1"
   id="svg8"
   inkscape:version="0.92.4 (5da689c313, 2019-01-14)"
   sodipodi:docname="fokus.svg">
  <defs
     id="defs2" />
  <sodipodi:namedview
     id="base"
     pagecolor="#ffffff"
     bordercolor="#666666"
     borderopacity="1.0"
     inkscape:pageopacity="0.0"
     inkscape:pageshadow="2"
     inkscape:zoom="44.8"
     inkscape:cx="8.6216916"
     inkscape:cy="0.50963985"
     inkscape:document-units="mm"
     inkscape:current-layer="layer1"
     showgrid="true"
     fit-margin-top="0"
     fit-margin-left="0"
     fit-margin-right="0"
     fit-margin-bottom="0"
     inkscape:window-width="2880"
     inkscape:window-height="1795"
     inkscape:window-x="-13"
     inkscape:window-y="-13"
     inkscape:window-maximized="1">
    <inkscape:grid
       type="xygrid"
       id="grid815"
       originx="289.74951"
       originy="-356.91702" />
  </sodipodi:namedview>
  <metadata
     id="metadata5">
    <rdf:RDF>
      <cc:Work
         rdf:about="">
        <dc:format>image/svg+xml</dc:format>
        <dc:type
           rdf:resource="http://purl.org/dc/dcmitype/StillImage" />
        <dc:title></dc:title>
      </cc:Work>
    </rdf:RDF>
  </metadata>
  <g
     inkscape:label="Ebene 1"
     inkscape:groupmode="layer"
     id="layer1"
     transform="translate(289.7495,62.879579)">
    <path
       style="color:#000000;font-style:normal;font-variant:normal;font-weight:normal;font-stretch:normal;font-size:medium;line-height:normal;font-family:sans-serif;font-variant-ligatures:normal;font-variant-position:normal;font-variant-caps:normal;font-variant-numeric:normal;font-variant-alternates:normal;font-feature-settings:normal;text-indent:0;text-align:start;text-decoration:none;text-decoration-line:none;text-decoration-style:solid;text-decoration-color:#000000;letter-spacing:normal;word-spacing:normal;text-transform:none;writing-mode:lr-tb;direction:ltr;text-orientation:mixed;dominant-baseline:auto;baseline-shift:baseline;text-anchor:start;white-space:normal;shape-padding:0;clip-rule:nonzero;display:inline;overflow:visible;visibility:visible;opacity:1;isolation:auto;mix-blend-mode:normal;color-interpolation:sRGB;color-interpolation-filters:linearRGB;solid-color:#000000;solid-opacity:1;vector-effect:none;fill:#ff0000;fill-opacity:1;fill-rule:nonzero;stroke:#ffdada;stroke-width:0.05;stroke-linecap:round;stroke-linejoin:round;stroke-miterlimit:4;stroke-dasharray:none;stroke-dashoffset:0;stroke-opacity:1;color-rendering:auto;image-rendering:auto;shape-rendering:auto;text-rendering:auto;enable-background:accumulate"
       d="m -288.26613,-62.854521 a 0.13230488,0.13230488 0 0 0 -0.0135,10e-4 0.13230488,0.13230488 0 0 0 -0.11731,0.13281 v 0.374653 c -0.42368,0.0587 -0.75756,0.392885 -0.81648,0.816488 h -0.37309 a 0.13251323,0.13251323 0 0 0 -0.0134,0 0.13298902,0.13298902 0 0 0 0.0134,0.265618 h 0.37309 c 0.0602,0.422013 0.39394,0.754327 0.81648,0.812869 v 0.376721 a 0.13282083,0.13282083 0 0 0 0.26564,0 v -0.377237 c 0.42061,-0.06014 0.75282,-0.391708 0.81285,-0.812353 h 0.37672 a 0.13281249,0.13281249 0 1 0 0,-0.265618 h -0.37672 c -0.0587,-0.422235 -0.39113,-0.755671 -0.81285,-0.81597 v -0.375171 a 0.13230488,0.13230488 0 0 0 -0.13488,-0.133842 z m -0.13076,0.773597 v 0.454752 a 0.26458331,0.26458331 0 0 1 0.12919,-0.03462 0.26458331,0.26458331 0 0 1 0.13645,0.03824 v -0.457854 c 0.27805,0.05417 0.49517,0.272225 0.54777,0.550871 h -0.4563 a 0.26458331,0.26458331 0 0 1 0.0367,0.133326 0.26458331,0.26458331 0 0 1 -0.0356,0.132292 h 0.45474 c -0.0537,0.276974 -0.27035,0.493315 -0.54724,0.547253 v -0.452686 a 0.26458331,0.26458331 0 0 1 -0.13645,0.03772 0.26458331,0.26458331 0 0 1 -0.12919,-0.03359 v 0.449069 c -0.27882,-0.05261 -0.49686,-0.269454 -0.55086,-0.547769 h 0.45114 a 0.26458331,0.26458331 0 0 1 -0.0357,-0.132292 0.26458331,0.26458331 0 0 1 0.0367,-0.133326 h -0.45268 c 0.0528,-0.27999 0.27139,-0.498557 0.55137,-0.551386 z"
       id="path817"
       inkscape:connector-curvature="0"
       inkscape:export-xdpi="274.35867"
       inkscape:export-ydpi="274.35867" />
  </g>
</svg>
